<svg xmlns="http://www.w3.org/2000/svg" xmlns:xlink="http://www.w3.org/1999/xlink" width="250" zoomAndPan="magnify" viewBox="0 0 187.5 37.5" height="50" preserveAspectRatio="xMidYMid meet" version="1.0"><defs><g/><clipPath id="bd857c9a1a"><path d="M 14 1.011719 L 17 1.011719 L 17 3 L 14 3 Z M 14 1.011719 " clip-rule="nonzero"/></clipPath><clipPath id="0df5f1056d"><path d="M 16 1.011719 L 18 1.011719 L 18 2 L 16 2 Z M 16 1.011719 " clip-rule="nonzero"/></clipPath><clipPath id="f5bab14d30"><path d="M 19 29 L 40.953125 29 L 40.953125 35.796875 L 19 35.796875 Z M 19 29 " clip-rule="nonzero"/></clipPath><clipPath id="0c566de2ca"><path d="M 12 16 L 33 16 L 33 35.796875 L 12 35.796875 Z M 12 16 " clip-rule="nonzero"/></clipPath><clipPath id="a0031ee2fd"><path d="M 27 33 L 38 33 L 38 35.796875 L 27 35.796875 Z M 27 33 " clip-rule="nonzero"/></clipPath><clipPath id="4b4051b2c4"><path d="M 27 33 L 30 33 L 30 35.796875 L 27 35.796875 Z M 27 33 " clip-rule="nonzero"/></clipPath><clipPath id="6d5d0cdcc5"><path d="M 29 35 L 37 35 L 37 35.796875 L 29 35.796875 Z M 29 35 " clip-rule="nonzero"/></clipPath><clipPath id="5039217961"><path d="M 13 33 L 17 33 L 17 35.796875 L 13 35.796875 Z M 13 33 " clip-rule="nonzero"/></clipPath><clipPath id="7635aebb80"><path d="M 3 30 L 9 30 L 9 35.796875 L 3 35.796875 Z M 3 30 " clip-rule="nonzero"/></clipPath></defs><path fill="#52a8ce" d="M 26.105469 28.359375 C 25.839844 28.359375 25.625 28.15625 25.613281 27.890625 C 25.601562 27.625 25.816406 27.394531 26.085938 27.382812 C 27.515625 27.332031 28.765625 26.601562 29.433594 25.441406 C 30.042969 24.375 30.066406 23.101562 29.488281 22.039062 C 29.359375 21.800781 29.449219 21.503906 29.683594 21.375 C 29.925781 21.25 30.222656 21.335938 30.351562 21.570312 C 31.09375 22.933594 31.070312 24.5625 30.289062 25.925781 C 29.453125 27.382812 27.898438 28.292969 26.125 28.359375 C 26.113281 28.359375 26.109375 28.359375 26.105469 28.359375 Z M 26.105469 28.359375 " fill-opacity="1" fill-rule="nonzero"/><path fill="#72c4f9" d="M 33.613281 15.535156 C 32.125 21.296875 22.464844 31.375 18.597656 30.386719 C 15.105469 29.496094 11.140625 15.941406 12.628906 10.175781 C 14.117188 4.414062 19.457031 3.128906 25.25 4.609375 C 31.042969 6.089844 35.101562 9.769531 33.613281 15.535156 Z M 33.613281 15.535156 " fill-opacity="1" fill-rule="nonzero"/><path fill="#65b5ea" d="M 16 11.484375 C 17.089844 7.253906 20.382812 4.730469 22.875 4.160156 C 18.046875 3.574219 13.910156 5.214844 12.628906 10.175781 C 11.171875 15.816406 14.941406 28.933594 18.378906 30.316406 C 16.636719 27.214844 14.648438 16.722656 16 11.484375 Z M 16 11.484375 " fill-opacity="1" fill-rule="nonzero"/><path fill="#8adcff" d="M 29.707031 6.421875 C 31.136719 8.175781 31.671875 10.875 30.714844 14.582031 C 29.570312 19.015625 25.214844 26.261719 22.003906 29.507812 C 26.46875 26.984375 32.464844 19.980469 33.609375 15.539062 C 34.671875 11.421875 32.910156 8.371094 29.707031 6.421875 Z M 29.707031 6.421875 " fill-opacity="1" fill-rule="nonzero"/><path fill="#ffffff" d="M 33.265625 13.433594 C 33.042969 11.886719 29.984375 10.097656 26.992188 9.335938 C 24.003906 8.574219 20.453125 8.675781 19.515625 9.925781 C 18.570312 11.179688 18.015625 15.511719 19.117188 16.519531 C 20.214844 17.53125 22.652344 18.152344 24.59375 18.644531 C 26.53125 19.140625 28.96875 19.765625 30.421875 19.402344 C 31.871094 19.042969 33.484375 14.976562 33.265625 13.433594 Z M 33.265625 13.433594 " fill-opacity="1" fill-rule="nonzero"/><path fill="#4682b0" d="M 26.414062 17.5 C 25.734375 17.433594 25.226562 17.039062 24.96875 16.382812 C 24.902344 16.203125 24.988281 16 25.171875 15.929688 C 25.351562 15.863281 25.558594 15.949219 25.628906 16.128906 C 25.785156 16.539062 26.066406 16.757812 26.476562 16.796875 C 26.722656 16.820312 26.925781 16.761719 27.089844 16.625 C 27.242188 16.5 27.464844 16.527344 27.585938 16.671875 C 27.710938 16.824219 27.6875 17.042969 27.539062 17.167969 C 27.222656 17.425781 26.839844 17.539062 26.414062 17.5 Z M 26.414062 17.5 " fill-opacity="1" fill-rule="nonzero"/><path fill="#4682b0" d="M 23.660156 13.882812 C 23.550781 14.300781 23.167969 14.5625 22.804688 14.476562 C 22.4375 14.382812 22.230469 13.96875 22.332031 13.550781 C 22.441406 13.136719 22.824219 12.871094 23.1875 12.960938 C 23.554688 13.054688 23.765625 13.464844 23.660156 13.882812 Z M 23.660156 13.882812 " fill-opacity="1" fill-rule="evenodd"/><path fill="#4682b0" d="M 31.25 15.851562 C 31.144531 16.265625 30.757812 16.53125 30.394531 16.441406 C 30.027344 16.351562 29.820312 15.933594 29.925781 15.519531 C 30.03125 15.105469 30.414062 14.839844 30.777344 14.929688 C 31.148438 15.023438 31.355469 15.433594 31.25 15.851562 Z M 31.25 15.851562 " fill-opacity="1" fill-rule="evenodd"/><path fill="#65b5ea" d="M 24.851562 20.101562 C 25.90625 20.371094 26.550781 21.414062 26.289062 22.4375 C 26.027344 23.457031 24.957031 24.0625 23.898438 23.792969 C 22.839844 23.527344 22.195312 22.480469 22.460938 21.460938 C 22.722656 20.4375 23.792969 19.832031 24.851562 20.101562 Z M 24.851562 20.101562 " fill-opacity="1" fill-rule="nonzero"/><path fill="#ffffff" d="M 24.488281 20.359375 C 25.425781 20.601562 25.996094 21.550781 25.75 22.484375 C 25.503906 23.417969 24.550781 23.984375 23.613281 23.742188 C 22.671875 23.5 22.105469 22.546875 22.347656 21.617188 C 22.589844 20.683594 23.546875 20.121094 24.488281 20.359375 Z M 24.488281 20.359375 " fill-opacity="1" fill-rule="nonzero"/><path fill="#ffe343" d="M 23.601562 23.148438 C 23.574219 23.144531 23.550781 23.128906 23.53125 23.105469 C 23.480469 23.050781 23.488281 22.96875 23.546875 22.921875 L 24.371094 22.210938 L 23.363281 22.191406 C 23.308594 22.191406 23.261719 22.152344 23.242188 22.105469 C 23.222656 22.050781 23.242188 21.992188 23.28125 21.957031 L 24.453125 21.003906 C 24.511719 20.960938 24.597656 20.964844 24.640625 21.023438 C 24.683594 21.082031 24.679688 21.167969 24.621094 21.210938 L 23.726562 21.9375 L 24.71875 21.957031 C 24.773438 21.957031 24.824219 21.992188 24.84375 22.046875 C 24.863281 22.097656 24.847656 22.152344 24.804688 22.191406 L 23.71875 23.125 C 23.6875 23.148438 23.644531 23.160156 23.601562 23.148438 Z M 23.601562 23.148438 " fill-opacity="1" fill-rule="nonzero"/><path fill="#72c4f9" d="M 15.910156 3.828125 C 15.945312 3.753906 15.910156 3.664062 15.835938 3.632812 C 15.574219 3.507812 15.359375 3.300781 15.238281 3.039062 C 15.203125 2.96875 15.113281 2.9375 15.039062 2.972656 C 14.96875 3.007812 14.9375 3.09375 14.972656 3.167969 C 15.128906 3.488281 15.390625 3.75 15.714844 3.894531 C 15.789062 3.933594 15.875 3.898438 15.910156 3.828125 Z M 15.910156 3.828125 " fill-opacity="1" fill-rule="nonzero"/><g clip-path="url(#bd857c9a1a)"><path fill="#72c4f9" d="M 15.992188 1.261719 C 16.007812 1.226562 16.011719 1.1875 16 1.148438 C 15.96875 1.078125 15.878906 1.039062 15.808594 1.066406 C 15.398438 1.222656 15.074219 1.550781 14.917969 1.957031 C 14.886719 2.035156 14.929688 2.117188 15 2.148438 C 15.074219 2.175781 15.164062 2.136719 15.191406 2.0625 C 15.320312 1.730469 15.582031 1.472656 15.910156 1.339844 C 15.953125 1.324219 15.980469 1.296875 15.992188 1.261719 Z M 15.992188 1.261719 " fill-opacity="1" fill-rule="nonzero"/></g><g clip-path="url(#0df5f1056d)"><path fill="#72c4f9" d="M 17.738281 1.898438 C 17.757812 1.859375 17.757812 1.808594 17.730469 1.765625 C 17.550781 1.433594 17.25 1.179688 16.890625 1.050781 C 16.8125 1.023438 16.730469 1.0625 16.699219 1.140625 C 16.671875 1.21875 16.714844 1.300781 16.789062 1.332031 C 17.078125 1.433594 17.320312 1.640625 17.464844 1.90625 C 17.507812 1.980469 17.59375 2.003906 17.667969 1.964844 C 17.703125 1.945312 17.722656 1.921875 17.738281 1.898438 Z M 17.738281 1.898438 " fill-opacity="1" fill-rule="nonzero"/></g><path fill="#72c4f9" d="M 19.355469 4.105469 C 19.742188 4.238281 19.371094 4.675781 18.40625 4.976562 C 17.09375 5.371094 17.054688 4.789062 17.054688 4.789062 C 17.152344 4.632812 17.214844 4.472656 17.246094 4.285156 C 17.300781 3.914062 16.460938 3.1875 16.011719 2.683594 C 15.828125 2.472656 15.851562 2.324219 15.972656 2.179688 C 16.113281 2.019531 16.253906 1.957031 16.515625 2.113281 C 16.996094 2.394531 17.652344 2.980469 18.238281 3.445312 C 18.597656 3.738281 19.003906 3.953125 19.355469 4.105469 Z M 19.355469 4.105469 " fill-opacity="1" fill-rule="nonzero"/><path fill="#52a8ce" d="M 14.019531 23.6875 C 13.105469 23.6875 12.460938 23.394531 12.074219 23.136719 C 11.0625 22.464844 10.511719 21.230469 10.640625 19.917969 C 10.792969 18.359375 11.835938 17.03125 13.429688 16.359375 C 13.679688 16.257812 13.96875 16.375 14.074219 16.625 C 14.175781 16.875 14.058594 17.160156 13.808594 17.265625 C 12.554688 17.785156 11.734375 18.8125 11.617188 20.007812 C 11.523438 20.960938 11.90625 21.84375 12.613281 22.320312 C 13.535156 22.929688 14.878906 22.816406 16.410156 22.011719 C 16.652344 21.882812 16.949219 21.976562 17.078125 22.210938 C 17.207031 22.449219 17.113281 22.75 16.878906 22.875 C 15.726562 23.480469 14.78125 23.6875 14.019531 23.6875 Z M 14.019531 23.6875 " fill-opacity="1" fill-rule="nonzero"/><path fill="#4896c1" d="M 17.9375 23.730469 C 17.609375 23.730469 17.28125 23.644531 16.992188 23.472656 C 16.558594 23.21875 16.25 22.8125 16.125 22.328125 C 16 21.84375 16.070312 21.34375 16.328125 20.914062 C 16.582031 20.484375 16.992188 20.175781 17.476562 20.054688 C 17.960938 19.925781 18.46875 20 18.902344 20.253906 C 19.175781 20.414062 19.269531 20.769531 19.105469 21.042969 C 18.945312 21.316406 18.585938 21.410156 18.3125 21.25 C 18.148438 21.152344 17.953125 21.128906 17.769531 21.175781 C 17.585938 21.226562 17.433594 21.34375 17.335938 21.503906 C 17.234375 21.664062 17.210938 21.859375 17.261719 22.039062 C 17.308594 22.226562 17.425781 22.378906 17.589844 22.476562 C 17.75 22.574219 17.949219 22.597656 18.128906 22.546875 C 18.316406 22.5 18.46875 22.382812 18.566406 22.222656 C 18.730469 21.949219 19.085938 21.855469 19.363281 22.015625 C 19.636719 22.175781 19.730469 22.535156 19.570312 22.808594 C 19.3125 23.238281 18.90625 23.546875 18.417969 23.667969 C 18.253906 23.710938 18.09375 23.730469 17.9375 23.730469 Z M 17.9375 23.730469 " fill-opacity="1" fill-rule="nonzero"/><g clip-path="url(#f5bab14d30)"><path fill="#d2d7d8" d="M 19.691406 35.648438 C 19.691406 35.648438 19.105469 34.335938 20.039062 33.269531 C 20.71875 32.5 22.125 32.285156 22.980469 32.902344 C 22.945312 32.753906 22.917969 32.519531 22.976562 32.25 C 23.136719 31.511719 23.890625 30.988281 24.613281 30.886719 C 25.734375 30.71875 26.503906 31.613281 26.546875 31.667969 C 26.601562 31.234375 26.773438 30.417969 27.421875 29.8125 C 28.757812 28.570312 31.476562 28.820312 32.472656 30.433594 C 33.140625 31.511719 32.757812 32.796875 32.65625 33.113281 C 33.582031 31.78125 35.160156 31.507812 35.988281 32.121094 C 36.769531 32.699219 36.683594 33.910156 36.675781 34.015625 C 37.460938 33.347656 38.597656 33.210938 39.539062 33.605469 C 40.628906 34.066406 40.953125 35.660156 40.953125 35.660156 L 19.691406 35.660156 Z M 19.691406 35.648438 " fill-opacity="1" fill-rule="nonzero"/></g><path fill="#4896c1" d="M 24.523438 29.988281 C 24.292969 29.988281 24.058594 29.945312 23.832031 29.855469 C 23.53125 29.738281 23.390625 29.402344 23.507812 29.105469 C 23.625 28.804688 23.964844 28.664062 24.261719 28.78125 C 24.625 28.929688 25.042969 28.746094 25.191406 28.386719 C 25.261719 28.210938 25.261719 28.015625 25.1875 27.84375 C 25.113281 27.671875 24.96875 27.535156 24.792969 27.460938 C 24.617188 27.394531 24.421875 27.394531 24.25 27.46875 C 24.070312 27.539062 23.9375 27.683594 23.863281 27.859375 C 23.746094 28.15625 23.410156 28.296875 23.109375 28.179688 C 22.808594 28.0625 22.667969 27.726562 22.785156 27.429688 C 22.972656 26.964844 23.324219 26.601562 23.785156 26.402344 C 24.25 26.207031 24.757812 26.199219 25.226562 26.382812 C 25.691406 26.570312 26.054688 26.921875 26.257812 27.378906 C 26.453125 27.839844 26.460938 28.347656 26.277344 28.8125 C 25.976562 29.542969 25.269531 29.988281 24.523438 29.988281 Z M 24.523438 29.988281 " fill-opacity="1" fill-rule="nonzero"/><g clip-path="url(#0c566de2ca)"><path fill="#4682b0" d="M 31.824219 34.9375 L 12.542969 17.582031 C 12.359375 17.414062 12.34375 17.136719 12.511719 16.957031 C 12.679688 16.777344 12.957031 16.761719 13.140625 16.925781 L 32.425781 34.28125 C 32.605469 34.445312 32.621094 34.726562 32.453125 34.90625 C 32.285156 35.085938 32.007812 35.101562 31.824219 34.9375 Z M 31.824219 34.9375 " fill-opacity="1" fill-rule="nonzero"/></g><g clip-path="url(#a0031ee2fd)"><path fill="#4682b0" d="M 34.992188 33.679688 L 27.714844 33.679688 L 28.554688 35.648438 L 37.078125 35.648438 C 37.410156 35.648438 37.5625 35.238281 37.304688 35.027344 L 36.21875 34.125 C 35.875 33.835938 35.445312 33.679688 34.992188 33.679688 Z M 34.992188 33.679688 " fill-opacity="1" fill-rule="nonzero"/></g><g clip-path="url(#4b4051b2c4)"><path fill="#52a1cc" d="M 27.714844 33.679688 C 27.390625 33.679688 27.125 33.945312 27.125 34.265625 L 27.125 35.21875 C 27.125 35.457031 27.320312 35.648438 27.558594 35.648438 L 28.816406 35.648438 C 29.140625 35.648438 29.300781 35.261719 29.070312 35.035156 Z M 27.714844 33.679688 " fill-opacity="1" fill-rule="nonzero"/></g><g clip-path="url(#6d5d0cdcc5)"><path fill="#52a1cc" d="M 35.945312 35.164062 L 30.390625 35.164062 C 30.121094 35.164062 29.90625 35.378906 29.90625 35.648438 L 36.4375 35.648438 C 36.429688 35.378906 36.214844 35.164062 35.945312 35.164062 Z M 35.945312 35.164062 " fill-opacity="1" fill-rule="nonzero"/></g><path fill="#4896c1" d="M 17.9375 23.730469 C 17.609375 23.730469 17.28125 23.644531 16.992188 23.472656 C 16.714844 23.3125 16.621094 22.953125 16.785156 22.679688 C 16.945312 22.40625 17.304688 22.3125 17.578125 22.476562 C 17.742188 22.574219 17.9375 22.597656 18.121094 22.546875 C 18.304688 22.5 18.457031 22.382812 18.558594 22.222656 C 18.71875 21.949219 19.078125 21.855469 19.351562 22.015625 C 19.628906 22.175781 19.71875 22.535156 19.558594 22.808594 C 19.304688 23.238281 18.894531 23.546875 18.410156 23.667969 C 18.253906 23.710938 18.09375 23.730469 17.9375 23.730469 Z M 17.9375 23.730469 " fill-opacity="1" fill-rule="nonzero"/><path fill="#4896c1" d="M 23.324219 28.21875 C 23.25 28.21875 23.175781 28.203125 23.109375 28.179688 C 22.808594 28.0625 22.667969 27.726562 22.785156 27.429688 C 22.972656 26.964844 23.324219 26.601562 23.785156 26.402344 C 24.25 26.207031 24.757812 26.199219 25.226562 26.382812 C 25.523438 26.5 25.667969 26.835938 25.550781 27.136719 C 25.433594 27.433594 25.09375 27.574219 24.792969 27.457031 C 24.617188 27.390625 24.421875 27.390625 24.25 27.460938 C 24.070312 27.535156 23.9375 27.675781 23.863281 27.851562 C 23.773438 28.082031 23.554688 28.21875 23.324219 28.21875 Z M 23.324219 28.21875 " fill-opacity="1" fill-rule="nonzero"/><path fill="#4896c1" d="M 3.949219 30.320312 C 3.460938 30.320312 2.582031 30.230469 1.910156 29.683594 C 1.394531 29.265625 1.105469 28.664062 1.046875 27.902344 C 0.988281 27.117188 1.207031 26.421875 1.683594 25.886719 C 2.214844 25.289062 3.035156 24.9375 3.996094 24.894531 C 5.003906 24.847656 5.859375 24.320312 6.222656 23.519531 C 6.539062 22.824219 6.433594 22.058594 5.933594 21.433594 C 4.125 19.179688 4.703125 16.921875 6.011719 15.773438 C 7.542969 14.429688 10.410156 14.230469 13.089844 16.972656 C 13.25 17.128906 13.242188 17.382812 13.082031 17.539062 C 12.925781 17.695312 12.667969 17.6875 12.511719 17.527344 C 10.199219 15.164062 7.792969 15.269531 6.539062 16.375 C 5.480469 17.308594 5.074219 19.074219 6.558594 20.933594 C 7.246094 21.792969 7.394531 22.882812 6.957031 23.847656 C 6.46875 24.925781 5.347656 25.628906 4.035156 25.6875 C 3.292969 25.722656 2.675781 25.976562 2.292969 26.414062 C 1.964844 26.785156 1.8125 27.277344 1.855469 27.839844 C 1.894531 28.378906 2.085938 28.78125 2.429688 29.066406 C 3.113281 29.621094 4.207031 29.507812 4.21875 29.503906 C 4.4375 29.476562 4.640625 29.632812 4.664062 29.851562 C 4.6875 30.070312 4.539062 30.269531 4.316406 30.296875 C 4.292969 30.304688 4.152344 30.320312 3.949219 30.320312 Z M 3.949219 30.320312 " fill-opacity="1" fill-rule="nonzero"/><path fill="#4682b0" d="M 5.898438 26.792969 C 4.339844 27.625 3.433594 29.867188 3.632812 32.117188 C 3.835938 34.367188 5.164062 34.964844 6.742188 34.945312 C 6.742188 34.945312 13.847656 34.945312 14.894531 34.945312 C 15.941406 34.945312 16.25 34.457031 16.191406 32.78125 C 16.136719 31.101562 15.890625 29.664062 14.5 28.832031 C 13.117188 27.984375 8.671875 25.3125 5.898438 26.792969 Z M 5.898438 26.792969 " fill-opacity="1" fill-rule="nonzero"/><path fill="#52a1cc" d="M 8.074219 29.972656 C 9.015625 29.289062 9.613281 27.59375 9.886719 26.671875 C 8.496094 26.28125 7.050781 26.179688 5.898438 26.792969 C 4.738281 27.410156 3.941406 28.804688 3.691406 30.40625 C 5.183594 30.476562 7.367188 30.480469 8.074219 29.972656 Z M 8.074219 29.972656 " fill-opacity="1" fill-rule="nonzero"/><g clip-path="url(#5039217961)"><path fill="#52a1cc" d="M 16.214844 34.609375 C 16.214844 34.765625 16.183594 34.914062 16.125 35.058594 C 16.0625 35.203125 15.980469 35.332031 15.867188 35.441406 C 15.757812 35.550781 15.628906 35.636719 15.484375 35.695312 C 15.339844 35.753906 15.1875 35.785156 15.03125 35.785156 C 14.875 35.785156 14.722656 35.753906 14.578125 35.695312 C 14.433594 35.636719 14.304688 35.550781 14.195312 35.441406 C 14.082031 35.332031 13.996094 35.203125 13.9375 35.058594 C 13.878906 34.914062 13.847656 34.765625 13.847656 34.609375 C 13.847656 34.453125 13.878906 34.300781 13.9375 34.15625 C 13.996094 34.011719 14.082031 33.886719 14.195312 33.777344 C 14.304688 33.664062 14.433594 33.582031 14.578125 33.519531 C 14.722656 33.460938 14.875 33.429688 15.03125 33.429688 C 15.1875 33.429688 15.339844 33.460938 15.484375 33.519531 C 15.628906 33.582031 15.757812 33.664062 15.867188 33.777344 C 15.980469 33.886719 16.0625 34.011719 16.125 34.15625 C 16.183594 34.300781 16.214844 34.453125 16.214844 34.609375 Z M 16.214844 34.609375 " fill-opacity="1" fill-rule="nonzero"/></g><path fill="#4682b0" d="M 15.363281 34.609375 C 15.363281 34.699219 15.332031 34.777344 15.265625 34.84375 C 15.203125 34.90625 15.125 34.941406 15.03125 34.941406 C 14.9375 34.941406 14.859375 34.90625 14.796875 34.84375 C 14.730469 34.777344 14.695312 34.699219 14.695312 34.609375 C 14.695312 34.515625 14.730469 34.4375 14.796875 34.375 C 14.859375 34.308594 14.9375 34.277344 15.03125 34.277344 C 15.125 34.277344 15.203125 34.308594 15.265625 34.375 C 15.332031 34.4375 15.363281 34.515625 15.363281 34.609375 Z M 15.363281 34.609375 " fill-opacity="1" fill-rule="nonzero"/><g clip-path="url(#7635aebb80)"><path fill="#52a1cc" d="M 8.570312 33.359375 C 8.570312 33.679688 8.507812 33.988281 8.382812 34.285156 C 8.257812 34.585938 8.082031 34.847656 7.855469 35.074219 C 7.625 35.300781 7.359375 35.476562 7.0625 35.601562 C 6.761719 35.722656 6.453125 35.785156 6.128906 35.785156 C 5.804688 35.785156 5.492188 35.722656 5.195312 35.601562 C 4.894531 35.476562 4.632812 35.300781 4.402344 35.074219 C 4.171875 34.847656 3.996094 34.585938 3.875 34.285156 C 3.75 33.988281 3.6875 33.679688 3.6875 33.359375 C 3.6875 33.035156 3.75 32.726562 3.875 32.429688 C 3.996094 32.132812 4.171875 31.867188 4.402344 31.640625 C 4.632812 31.414062 4.894531 31.238281 5.195312 31.113281 C 5.492188 30.992188 5.804688 30.929688 6.128906 30.929688 C 6.453125 30.929688 6.761719 30.992188 7.0625 31.113281 C 7.359375 31.238281 7.625 31.414062 7.855469 31.640625 C 8.082031 31.867188 8.257812 32.132812 8.382812 32.429688 C 8.507812 32.726562 8.570312 33.035156 8.570312 33.359375 Z M 8.570312 33.359375 " fill-opacity="1" fill-rule="nonzero"/></g><path fill="#4682b0" d="M 6.816406 33.359375 C 6.816406 33.546875 6.75 33.707031 6.613281 33.839844 C 6.480469 33.976562 6.316406 34.042969 6.128906 34.042969 C 5.9375 34.042969 5.777344 33.976562 5.640625 33.839844 C 5.507812 33.707031 5.441406 33.546875 5.441406 33.359375 C 5.441406 33.167969 5.507812 33.007812 5.640625 32.875 C 5.777344 32.742188 5.9375 32.675781 6.128906 32.675781 C 6.316406 32.675781 6.480469 32.742188 6.613281 32.875 C 6.75 33.007812 6.816406 33.167969 6.816406 33.359375 Z M 6.816406 33.359375 " fill-opacity="1" fill-rule="nonzero"/><path fill="#52a1cc" d="M 14.171875 29.886719 C 14.132812 29.886719 14.089844 29.871094 14.058594 29.839844 C 13.480469 29.351562 12.378906 28.976562 12.371094 28.972656 C 12.277344 28.9375 12.226562 28.839844 12.257812 28.746094 C 12.289062 28.652344 12.390625 28.605469 12.484375 28.632812 C 12.53125 28.648438 13.65625 29.039062 14.289062 29.566406 C 14.363281 29.632812 14.375 29.742188 14.308594 29.816406 C 14.273438 29.867188 14.222656 29.886719 14.171875 29.886719 Z M 14.171875 29.886719 " fill-opacity="1" fill-rule="nonzero"/><path fill="#52a1cc" d="M 13.578125 30.375 C 13.539062 30.375 13.492188 30.359375 13.464844 30.328125 C 13.105469 30.027344 12.414062 29.789062 12.402344 29.789062 C 12.3125 29.753906 12.261719 29.65625 12.289062 29.5625 C 12.324219 29.46875 12.421875 29.421875 12.515625 29.449219 C 12.546875 29.460938 13.277344 29.714844 13.691406 30.0625 C 13.765625 30.125 13.773438 30.238281 13.710938 30.308594 C 13.679688 30.347656 13.632812 30.375 13.578125 30.375 Z M 13.578125 30.375 " fill-opacity="1" fill-rule="nonzero"/><g fill="#5ce1e6" fill-opacity="1"><g transform="translate(36.567069, 29.210333)"><g><path d="M 0.859375 -17.90625 L 8.8125 -17.90625 C 9.519531 -17.90625 10.109375 -17.847656 10.578125 -17.734375 C 11.054688 -17.628906 11.4375 -17.429688 11.71875 -17.140625 C 12 -16.859375 12.191406 -16.476562 12.296875 -16 C 12.398438 -15.53125 12.453125 -14.929688 12.453125 -14.203125 L 12.453125 -13.265625 C 12.453125 -12.703125 12.4375 -12.222656 12.40625 -11.828125 C 12.382812 -11.441406 12.335938 -11.101562 12.265625 -10.8125 C 12.191406 -10.53125 12.097656 -10.296875 11.984375 -10.109375 C 11.867188 -9.921875 11.726562 -9.753906 11.5625 -9.609375 C 11.4375 -9.503906 11.3125 -9.414062 11.1875 -9.34375 C 11.0625 -9.269531 10.898438 -9.207031 10.703125 -9.15625 C 10.515625 -9.101562 10.28125 -9.046875 10 -8.984375 C 9.71875 -8.929688 9.375 -8.875 8.96875 -8.8125 C 9.445312 -8.695312 9.847656 -8.59375 10.171875 -8.5 C 10.492188 -8.414062 10.757812 -8.328125 10.96875 -8.234375 C 11.1875 -8.148438 11.363281 -8.050781 11.5 -7.9375 C 11.632812 -7.820312 11.765625 -7.679688 11.890625 -7.515625 C 12.265625 -6.984375 12.453125 -6.144531 12.453125 -5 L 12.453125 -3.859375 C 12.453125 -2.234375 12.203125 -1.144531 11.703125 -0.59375 C 11.597656 -0.46875 11.484375 -0.367188 11.359375 -0.296875 C 11.234375 -0.222656 11.078125 -0.160156 10.890625 -0.109375 C 10.703125 -0.0664062 10.46875 -0.0351562 10.1875 -0.015625 C 9.90625 -0.00390625 9.5625 0 9.15625 0 L 0.859375 0 Z M 5.65625 -13.953125 L 5.65625 -10.875 L 6.546875 -10.875 C 7.316406 -10.875 7.703125 -11.335938 7.703125 -12.265625 C 7.703125 -12.878906 7.613281 -13.3125 7.4375 -13.5625 C 7.257812 -13.820312 6.953125 -13.953125 6.515625 -13.953125 Z M 6.359375 -3.859375 C 6.828125 -3.859375 7.164062 -3.96875 7.375 -4.1875 C 7.59375 -4.414062 7.703125 -4.789062 7.703125 -5.3125 C 7.703125 -5.9375 7.609375 -6.363281 7.421875 -6.59375 C 7.234375 -6.832031 6.878906 -6.953125 6.359375 -6.953125 L 5.65625 -6.953125 L 5.65625 -3.859375 Z M 6.359375 -3.859375 "/></g></g></g><g fill="#5ce1e6" fill-opacity="1"><g transform="translate(49.585094, 29.210333)"><g><path d="M 3.96875 0 C 3.164062 0 2.570312 -0.0351562 2.1875 -0.109375 C 1.800781 -0.191406 1.492188 -0.351562 1.265625 -0.59375 C 1.140625 -0.71875 1.039062 -0.847656 0.96875 -0.984375 C 0.894531 -1.117188 0.832031 -1.289062 0.78125 -1.5 C 0.738281 -1.71875 0.710938 -2 0.703125 -2.34375 C 0.703125 -2.695312 0.703125 -3.148438 0.703125 -3.703125 L 0.703125 -10.984375 C 0.703125 -11.984375 0.914062 -12.695312 1.34375 -13.125 C 1.5625 -13.34375 1.890625 -13.5 2.328125 -13.59375 C 2.773438 -13.695312 3.40625 -13.75 4.21875 -13.75 L 7.5625 -13.75 C 9 -13.75 9.976562 -13.539062 10.5 -13.125 C 10.632812 -13.019531 10.742188 -12.910156 10.828125 -12.796875 C 10.910156 -12.691406 10.972656 -12.554688 11.015625 -12.390625 C 11.066406 -12.222656 11.097656 -12.007812 11.109375 -11.75 C 11.128906 -11.5 11.140625 -11.179688 11.140625 -10.796875 L 11.140625 -5.15625 L 4.96875 -5.15625 L 4.96875 -4.421875 C 4.96875 -3.960938 5.066406 -3.648438 5.265625 -3.484375 C 5.472656 -3.328125 5.875 -3.25 6.46875 -3.25 L 11.140625 -3.25 L 11.140625 0 Z M 6.875 -7.765625 L 6.875 -9 C 6.875 -9.457031 6.785156 -9.820312 6.609375 -10.09375 C 6.441406 -10.363281 6.207031 -10.5 5.90625 -10.5 C 5.601562 -10.5 5.367188 -10.363281 5.203125 -10.09375 C 5.046875 -9.820312 4.96875 -9.457031 4.96875 -9 L 4.96875 -7.765625 Z M 6.875 -7.765625 "/></g></g></g><g fill="#5ce1e6" fill-opacity="1"><g transform="translate(61.34158, 29.210333)"><g><path d="M 0.5625 -3.25 L 4.78125 -3.25 L 4.78125 -5 L 2.6875 -5 C 2.164062 -5 1.773438 -5.035156 1.515625 -5.109375 C 1.253906 -5.191406 1.050781 -5.332031 0.90625 -5.53125 C 0.84375 -5.632812 0.785156 -5.726562 0.734375 -5.8125 C 0.691406 -5.90625 0.65625 -6.03125 0.625 -6.1875 C 0.601562 -6.351562 0.585938 -6.578125 0.578125 -6.859375 C 0.566406 -7.140625 0.5625 -7.53125 0.5625 -8.03125 L 0.5625 -11.28125 C 0.5625 -11.90625 0.640625 -12.382812 0.796875 -12.71875 C 0.960938 -13.0625 1.222656 -13.320312 1.578125 -13.5 C 1.765625 -13.59375 2 -13.65625 2.28125 -13.6875 C 2.570312 -13.726562 2.957031 -13.75 3.4375 -13.75 L 8.703125 -13.75 L 8.703125 -10.5 L 4.828125 -10.5 L 4.828125 -8.890625 L 6.328125 -8.890625 C 7.015625 -8.890625 7.550781 -8.828125 7.9375 -8.703125 C 8.320312 -8.578125 8.613281 -8.359375 8.8125 -8.046875 C 8.875 -7.921875 8.929688 -7.789062 8.984375 -7.65625 C 9.046875 -7.53125 9.085938 -7.363281 9.109375 -7.15625 C 9.140625 -6.945312 9.160156 -6.675781 9.171875 -6.34375 C 9.179688 -6.019531 9.1875 -5.597656 9.1875 -5.078125 L 9.1875 -3.1875 C 9.1875 -3 9.160156 -2.722656 9.109375 -2.359375 C 9.066406 -2.003906 9.03125 -1.738281 9 -1.5625 C 8.90625 -1.195312 8.707031 -0.867188 8.40625 -0.578125 C 8.113281 -0.296875 7.789062 -0.128906 7.4375 -0.078125 C 7.332031 -0.0546875 7.1875 -0.0390625 7 -0.03125 C 6.820312 -0.03125 6.46875 -0.0195312 5.9375 0 L 0.5625 0 Z M 0.5625 -3.25 "/></g></g></g><g fill="#5ce1e6" fill-opacity="1"><g transform="translate(71.299728, 29.210333)"><g><path d="M 3.953125 0 C 3.390625 0 2.921875 -0.0507812 2.546875 -0.15625 C 2.171875 -0.269531 1.867188 -0.453125 1.640625 -0.703125 C 1.421875 -0.953125 1.257812 -1.28125 1.15625 -1.6875 C 1.0625 -2.101562 1.015625 -2.625 1.015625 -3.25 L 1.015625 -9.984375 L -0.140625 -9.984375 L -0.140625 -13.234375 L 1.015625 -13.234375 L 1.015625 -16.484375 L 5.28125 -16.484375 L 5.28125 -13.234375 L 7.328125 -13.234375 L 7.328125 -9.984375 L 5.28125 -9.984375 L 5.28125 -4.21875 C 5.28125 -3.851562 5.347656 -3.597656 5.484375 -3.453125 C 5.617188 -3.316406 5.859375 -3.25 6.203125 -3.25 L 7.328125 -3.25 L 7.328125 0 Z M 3.953125 0 "/></g></g></g><g fill="#5ce1e6" fill-opacity="1"><g transform="translate(78.868963, 29.210333)"><g/></g></g><g fill="#5ce1e6" fill-opacity="1"><g transform="translate(85.230343, 29.210333)"><g><path d="M 4.8125 0 C 3.769531 0 2.988281 -0.0507812 2.46875 -0.15625 C 1.945312 -0.269531 1.550781 -0.453125 1.28125 -0.703125 C 1.144531 -0.828125 1.039062 -0.953125 0.96875 -1.078125 C 0.894531 -1.203125 0.832031 -1.363281 0.78125 -1.5625 C 0.738281 -1.769531 0.710938 -2.046875 0.703125 -2.390625 C 0.703125 -2.742188 0.703125 -3.21875 0.703125 -3.8125 L 0.703125 -9.90625 C 0.703125 -10.5 0.703125 -10.96875 0.703125 -11.3125 C 0.710938 -11.664062 0.738281 -11.945312 0.78125 -12.15625 C 0.832031 -12.375 0.894531 -12.546875 0.96875 -12.671875 C 1.039062 -12.796875 1.144531 -12.921875 1.28125 -13.046875 C 1.550781 -13.296875 1.945312 -13.472656 2.46875 -13.578125 C 2.988281 -13.691406 3.769531 -13.75 4.8125 -13.75 L 7.171875 -13.75 C 8.191406 -13.75 8.957031 -13.691406 9.46875 -13.578125 C 9.988281 -13.472656 10.382812 -13.296875 10.65625 -13.046875 C 10.78125 -12.921875 10.882812 -12.796875 10.96875 -12.671875 C 11.050781 -12.546875 11.113281 -12.375 11.15625 -12.15625 C 11.195312 -11.945312 11.222656 -11.664062 11.234375 -11.3125 C 11.242188 -10.96875 11.25 -10.5 11.25 -9.90625 L 11.25 -3.8125 C 11.25 -3.21875 11.242188 -2.742188 11.234375 -2.390625 C 11.222656 -2.046875 11.195312 -1.769531 11.15625 -1.5625 C 11.113281 -1.363281 11.050781 -1.203125 10.96875 -1.078125 C 10.882812 -0.953125 10.78125 -0.828125 10.65625 -0.703125 C 10.382812 -0.453125 9.988281 -0.269531 9.46875 -0.15625 C 8.957031 -0.0507812 8.191406 0 7.171875 0 Z M 6.984375 -9 C 6.984375 -9.507812 6.898438 -9.878906 6.734375 -10.109375 C 6.578125 -10.347656 6.3125 -10.46875 5.9375 -10.46875 C 5.289062 -10.46875 4.96875 -9.976562 4.96875 -9 L 4.96875 -4.671875 C 4.96875 -4.148438 5.046875 -3.769531 5.203125 -3.53125 C 5.367188 -3.300781 5.640625 -3.1875 6.015625 -3.1875 C 6.660156 -3.1875 6.984375 -3.679688 6.984375 -4.671875 Z M 6.984375 -9 "/></g></g></g><g fill="#5ce1e6" fill-opacity="1"><g transform="translate(97.174709, 29.210333)"><g><path d="M 1.15625 -9.984375 L 0 -9.984375 L 0 -13.234375 L 1.15625 -13.234375 L 1.15625 -14.65625 C 1.15625 -15.257812 1.203125 -15.769531 1.296875 -16.1875 C 1.398438 -16.613281 1.5625 -16.953125 1.78125 -17.203125 C 2.007812 -17.453125 2.3125 -17.628906 2.6875 -17.734375 C 3.0625 -17.847656 3.523438 -17.90625 4.078125 -17.90625 L 6.953125 -17.90625 L 6.953125 -14.65625 L 6.328125 -14.65625 C 6.015625 -14.65625 5.785156 -14.582031 5.640625 -14.4375 C 5.492188 -14.300781 5.421875 -14.050781 5.421875 -13.6875 L 5.421875 -13.234375 L 6.953125 -13.234375 L 6.953125 -9.984375 L 5.421875 -9.984375 L 5.421875 0 L 1.15625 0 Z M 1.15625 -9.984375 "/></g></g></g><g fill="#5ce1e6" fill-opacity="1"><g transform="translate(104.368168, 29.210333)"><g/></g></g><g fill="#5ce1e6" fill-opacity="1"><g transform="translate(110.729548, 29.210333)"><g><path d="M 3.890625 0 C 2.867188 -1.789062 2.082031 -3.539062 1.53125 -5.25 C 0.976562 -6.957031 0.703125 -8.507812 0.703125 -9.90625 L 0.703125 -17.90625 L 5.5 -17.90625 L 5.5 -5.046875 C 5.5 -4.523438 5.570312 -4.15625 5.71875 -3.9375 C 5.875 -3.726562 6.132812 -3.625 6.5 -3.625 C 6.832031 -3.625 7.078125 -3.726562 7.234375 -3.9375 C 7.390625 -4.15625 7.46875 -4.523438 7.46875 -5.046875 L 7.46875 -17.90625 L 12.265625 -17.90625 L 12.265625 -9.90625 C 12.265625 -8.507812 11.988281 -6.941406 11.4375 -5.203125 C 10.882812 -3.472656 10.097656 -1.738281 9.078125 0 Z M 3.890625 0 "/></g></g></g><g fill="#5ce1e6" fill-opacity="1"><g transform="translate(123.693889, 29.210333)"><g><path d="M 3.65625 0.046875 C 2.882812 0.046875 2.332031 0 2 -0.09375 C 1.664062 -0.1875 1.398438 -0.378906 1.203125 -0.671875 C 1.046875 -0.921875 0.921875 -1.296875 0.828125 -1.796875 C 0.742188 -2.296875 0.703125 -2.867188 0.703125 -3.515625 L 0.703125 -10.84375 C 0.703125 -11.507812 0.738281 -12.007812 0.8125 -12.34375 C 0.894531 -12.6875 1.046875 -12.96875 1.265625 -13.1875 C 1.691406 -13.613281 2.300781 -13.828125 3.09375 -13.828125 L 4 -13.828125 C 4.34375 -13.828125 4.632812 -13.804688 4.875 -13.765625 C 5.113281 -13.734375 5.328125 -13.675781 5.515625 -13.59375 C 5.703125 -13.507812 5.875 -13.394531 6.03125 -13.25 C 6.195312 -13.113281 6.367188 -12.929688 6.546875 -12.703125 L 6.875 -12.296875 L 6.875 -13.75 L 11.140625 -13.75 L 11.140625 0 L 6.875 0 L 6.875 -1.5 C 6.695312 -1.164062 6.535156 -0.894531 6.390625 -0.6875 C 6.242188 -0.476562 6.082031 -0.316406 5.90625 -0.203125 C 5.738281 -0.0976562 5.546875 -0.03125 5.328125 0 C 5.117188 0.03125 4.847656 0.046875 4.515625 0.046875 Z M 6.875 -9.078125 C 6.875 -10.109375 6.550781 -10.625 5.90625 -10.625 C 5.28125 -10.625 4.96875 -10.109375 4.96875 -9.078125 L 4.96875 -4.828125 C 4.96875 -3.796875 5.289062 -3.28125 5.9375 -3.28125 C 6.5625 -3.28125 6.875 -3.796875 6.875 -4.828125 Z M 6.875 -9.078125 "/></g></g></g><g fill="#5ce1e6" fill-opacity="1"><g transform="translate(135.611413, 29.210333)"><g><path d="M 3.703125 0 C 2.910156 0 2.316406 -0.0664062 1.921875 -0.203125 C 1.535156 -0.335938 1.234375 -0.582031 1.015625 -0.9375 C 0.941406 -1.0625 0.882812 -1.171875 0.84375 -1.265625 C 0.800781 -1.367188 0.769531 -1.519531 0.75 -1.71875 C 0.726562 -1.914062 0.710938 -2.191406 0.703125 -2.546875 C 0.703125 -2.910156 0.703125 -3.421875 0.703125 -4.078125 L 0.703125 -10.65625 C 0.703125 -11.007812 0.703125 -11.285156 0.703125 -11.484375 C 0.703125 -11.679688 0.703125 -11.835938 0.703125 -11.953125 C 0.710938 -12.078125 0.734375 -12.171875 0.765625 -12.234375 C 0.796875 -12.304688 0.828125 -12.398438 0.859375 -12.515625 C 0.929688 -12.742188 1.035156 -12.9375 1.171875 -13.09375 C 1.304688 -13.257812 1.484375 -13.382812 1.703125 -13.46875 C 1.929688 -13.5625 2.207031 -13.628906 2.53125 -13.671875 C 2.863281 -13.722656 3.265625 -13.75 3.734375 -13.75 L 7.59375 -13.75 L 7.59375 -10.5 L 6.171875 -10.5 C 5.921875 -10.5 5.710938 -10.472656 5.546875 -10.421875 C 5.390625 -10.378906 5.265625 -10.296875 5.171875 -10.171875 C 5.085938 -10.046875 5.03125 -9.867188 5 -9.640625 C 4.976562 -9.421875 4.96875 -9.125 4.96875 -8.75 L 4.96875 -4.890625 C 4.96875 -4.523438 4.976562 -4.234375 5 -4.015625 C 5.03125 -3.804688 5.085938 -3.644531 5.171875 -3.53125 C 5.265625 -3.414062 5.394531 -3.335938 5.5625 -3.296875 C 5.738281 -3.265625 5.96875 -3.25 6.25 -3.25 L 7.59375 -3.25 L 7.59375 0 Z M 3.703125 0 "/></g></g></g><g fill="#5ce1e6" fill-opacity="1"><g transform="translate(143.475912, 29.210333)"><g><path d="M 5.265625 0 C 4.703125 0 4.234375 -0.0078125 3.859375 -0.03125 C 3.484375 -0.0625 3.160156 -0.113281 2.890625 -0.1875 C 2.628906 -0.257812 2.398438 -0.359375 2.203125 -0.484375 C 2.003906 -0.609375 1.816406 -0.769531 1.640625 -0.96875 C 1.472656 -1.125 1.332031 -1.296875 1.21875 -1.484375 C 1.101562 -1.671875 1.015625 -1.882812 0.953125 -2.125 C 0.890625 -2.375 0.84375 -2.660156 0.8125 -2.984375 C 0.789062 -3.316406 0.78125 -3.726562 0.78125 -4.21875 L 0.78125 -13.75 L 5.046875 -13.75 L 5.046875 -4.671875 C 5.046875 -3.679688 5.367188 -3.1875 6.015625 -3.1875 C 6.390625 -3.1875 6.65625 -3.300781 6.8125 -3.53125 C 6.976562 -3.769531 7.0625 -4.148438 7.0625 -4.671875 L 7.0625 -13.75 L 11.328125 -13.75 L 11.328125 -4.21875 C 11.328125 -3.75 11.3125 -3.34375 11.28125 -3 C 11.257812 -2.664062 11.21875 -2.375 11.15625 -2.125 C 11.09375 -1.882812 11 -1.671875 10.875 -1.484375 C 10.757812 -1.296875 10.625 -1.125 10.46875 -0.96875 C 10.269531 -0.769531 10.078125 -0.609375 9.890625 -0.484375 C 9.703125 -0.359375 9.472656 -0.257812 9.203125 -0.1875 C 8.941406 -0.113281 8.617188 -0.0625 8.234375 -0.03125 C 7.859375 -0.0078125 7.394531 0 6.84375 0 Z M 5.265625 0 "/></g></g></g><g fill="#5ce1e6" fill-opacity="1"><g transform="translate(155.581332, 29.210333)"><g><path d="M 5.265625 0 C 4.703125 0 4.234375 -0.0078125 3.859375 -0.03125 C 3.484375 -0.0625 3.160156 -0.113281 2.890625 -0.1875 C 2.628906 -0.257812 2.398438 -0.359375 2.203125 -0.484375 C 2.003906 -0.609375 1.816406 -0.769531 1.640625 -0.96875 C 1.472656 -1.125 1.332031 -1.296875 1.21875 -1.484375 C 1.101562 -1.671875 1.015625 -1.882812 0.953125 -2.125 C 0.890625 -2.375 0.84375 -2.660156 0.8125 -2.984375 C 0.789062 -3.316406 0.78125 -3.726562 0.78125 -4.21875 L 0.78125 -13.75 L 5.046875 -13.75 L 5.046875 -4.671875 C 5.046875 -3.679688 5.367188 -3.1875 6.015625 -3.1875 C 6.390625 -3.1875 6.65625 -3.300781 6.8125 -3.53125 C 6.976562 -3.769531 7.0625 -4.148438 7.0625 -4.671875 L 7.0625 -13.75 L 11.328125 -13.75 L 11.328125 -4.21875 C 11.328125 -3.75 11.3125 -3.34375 11.28125 -3 C 11.257812 -2.664062 11.21875 -2.375 11.15625 -2.125 C 11.09375 -1.882812 11 -1.671875 10.875 -1.484375 C 10.757812 -1.296875 10.625 -1.125 10.46875 -0.96875 C 10.269531 -0.769531 10.078125 -0.609375 9.890625 -0.484375 C 9.703125 -0.359375 9.472656 -0.257812 9.203125 -0.1875 C 8.941406 -0.113281 8.617188 -0.0625 8.234375 -0.03125 C 7.859375 -0.0078125 7.394531 0 6.84375 0 Z M 5.265625 0 "/></g></g></g><g fill="#5ce1e6" fill-opacity="1"><g transform="translate(167.686752, 29.210333)"><g><path d="M 0.78125 -13.75 L 5.046875 -13.75 L 5.046875 -12.265625 C 5.398438 -12.878906 5.789062 -13.285156 6.21875 -13.484375 C 6.65625 -13.691406 7.296875 -13.796875 8.140625 -13.796875 C 8.640625 -13.796875 9.070312 -13.769531 9.4375 -13.71875 C 9.800781 -13.664062 10.101562 -13.570312 10.34375 -13.4375 C 10.582031 -13.300781 10.78125 -13.125 10.9375 -12.90625 C 11.09375 -12.695312 11.210938 -12.429688 11.296875 -12.109375 C 11.515625 -12.460938 11.710938 -12.75 11.890625 -12.96875 C 12.066406 -13.195312 12.257812 -13.367188 12.46875 -13.484375 C 12.6875 -13.597656 12.9375 -13.675781 13.21875 -13.71875 C 13.5 -13.769531 13.84375 -13.796875 14.25 -13.796875 C 14.914062 -13.796875 15.457031 -13.753906 15.875 -13.671875 C 16.300781 -13.597656 16.632812 -13.453125 16.875 -13.234375 C 17.113281 -13.015625 17.28125 -12.71875 17.375 -12.34375 C 17.476562 -11.96875 17.53125 -11.488281 17.53125 -10.90625 L 17.53125 0 L 13.265625 0 L 13.265625 -9.15625 C 13.265625 -10.132812 12.921875 -10.625 12.234375 -10.625 C 11.609375 -10.625 11.296875 -10.113281 11.296875 -9.09375 L 11.296875 0 L 7.03125 0 L 7.03125 -9.078125 C 7.03125 -10.109375 6.691406 -10.625 6.015625 -10.625 C 5.367188 -10.625 5.046875 -10.085938 5.046875 -9.015625 L 5.046875 0 L 0.78125 0 Z M 0.78125 -13.75 "/></g></g></g></svg>