<svg xmlns="http://www.w3.org/2000/svg" width="200" height="50" viewBox="0 0 200 50">
  <style>
    .logo-text { font-family: 'Arial', sans-serif; font-weight: bold; fill: #0ea5e9; }
    .logo-icon { fill: #0ea5e9; }
  </style>
  <g>
    <path class="logo-icon" d="M35 10h-4a3 3 0 0 0-3-3H20a3 3 0 0 0-3 3v25a3 3 0 0 0 3 3h8a3 3 0 0 0 3-3v-9a3 3 0 0 0-3-3h-8m-8-13h2a1 1 0 0 1 1 1h-4a1 1 0 0 1 1-1zm8 28a1 1 0 0 1-1 1h-8a1 1 0 0 1-1-1v-3h9a1 1 0 0 0 0-2h-9v-8h9a1 1 0 0 0 0-2h-9v-2a1 1 0 0 1 1-1h8a1 1 0 0 1 1 1v9h-3a1 1 0 0 0 0 2h3v5z"></path>
    <text x="50" y="30" class="logo-text" font-size="20">Vacuum Expert</text>
  </g>
</svg>
