<?xml version="1.0" encoding="UTF-8" standalone="no"?>
<!DOCTYPE svg PUBLIC "-//W3C//DTD SVG 1.1//EN"
 "http://www.w3.org/Graphics/SVG/1.1/DTD/svg11.dtd">
<!-- Generated by graphviz version 12.1.1 (20240910.0053)
 -->
<!-- Title: INFRA Pages: 1 -->
<svg width="693pt" height="404pt"
 viewBox="0.00 0.00 693.41 404.00" xmlns="http://www.w3.org/2000/svg" xmlns:xlink="http://www.w3.org/1999/xlink">
<g id="graph0" class="graph" transform="scale(1 1) rotate(0) translate(4 400)">
<title>INFRA</title>
<polygon fill="white" stroke="none" points="-4,4 -4,-400 689.41,-400 689.41,4 -4,4"/>
<!-- Netlify Build -->
<g id="node1" class="node">
<title>Netlify Build</title>
<path fill="#e6e6e6" stroke="black" stroke-width="2" d="M312.51,-72C312.51,-72 233.38,-72 233.38,-72 227.38,-72 221.38,-66 221.38,-60 221.38,-60 221.38,-12 221.38,-12 221.38,-6 227.38,0 233.38,0 233.38,0 312.51,0 312.51,0 318.51,0 324.51,-6 324.51,-12 324.51,-12 324.51,-60 324.51,-60 324.51,-66 318.51,-72 312.51,-72"/>
<text text-anchor="middle" x="272.95" y="-40.2" font-family="Arial" font-size="14.00">Netlify Build</text>
<text text-anchor="middle" x="272.95" y="-23.4" font-family="Arial" font-size="14.00">(Netlify::Build)</text>
</g>
<!-- Netlify Deploy -->
<g id="node2" class="node">
<title>Netlify Deploy</title>
<path fill="#e6e6e6" stroke="black" stroke-width="2" d="M381.74,-180C381.74,-180 290.16,-180 290.16,-180 284.16,-180 278.16,-174 278.16,-168 278.16,-168 278.16,-120 278.16,-120 278.16,-114 284.16,-108 290.16,-108 290.16,-108 381.74,-108 381.74,-108 387.74,-108 393.74,-114 393.74,-120 393.74,-120 393.74,-168 393.74,-168 393.74,-174 387.74,-180 381.74,-180"/>
<text text-anchor="middle" x="335.95" y="-148.2" font-family="Arial" font-size="14.00">Netlify Deploy</text>
<text text-anchor="middle" x="335.95" y="-131.4" font-family="Arial" font-size="14.00">(Netlify::Deploy)</text>
</g>
<!-- Netlify Deploy&#45;&gt;Netlify Build -->
<g id="edge1" class="edge">
<title>Netlify Deploy&#45;&gt;Netlify Build</title>
<path fill="none" stroke="black" d="M314.97,-107.7C310.08,-99.48 304.81,-90.61 299.71,-82.03"/>
<polygon fill="black" stroke="black" points="302.73,-80.25 294.61,-73.44 296.71,-83.83 302.73,-80.25"/>
</g>
<!-- Astro Site -->
<g id="node3" class="node">
<title>Astro Site</title>
<path fill="#b7e0ff" stroke="black" stroke-width="2" d="M241.9,-288C241.9,-288 176,-288 176,-288 170,-288 164,-282 164,-276 164,-276 164,-228 164,-228 164,-222 170,-216 176,-216 176,-216 241.9,-216 241.9,-216 247.9,-216 253.9,-222 253.9,-228 253.9,-228 253.9,-276 253.9,-276 253.9,-282 247.9,-288 241.9,-288"/>
<text text-anchor="middle" x="208.95" y="-256.2" font-family="Arial" font-size="14.00">Astro Site</text>
<text text-anchor="middle" x="208.95" y="-239.4" font-family="Arial" font-size="14.00">(Astro::Site)</text>
</g>
<!-- Astro Site&#45;&gt;Netlify Build -->
<g id="edge2" class="edge">
<title>Astro Site&#45;&gt;Netlify Build</title>
<path fill="none" stroke="black" d="M219.52,-215.66C230.33,-179.5 247.19,-123.12 259.08,-83.38"/>
<polygon fill="black" stroke="black" points="262.42,-84.42 261.93,-73.84 255.71,-82.42 262.42,-84.42"/>
</g>
<!-- Astro Site&#45;&gt;Netlify Deploy -->
<g id="edge3" class="edge">
<title>Astro Site&#45;&gt;Netlify Deploy</title>
<path fill="none" stroke="black" d="M251.24,-215.7C262.16,-206.59 274.03,-196.68 285.34,-187.24"/>
<polygon fill="black" stroke="black" points="287.25,-190.21 292.68,-181.11 282.76,-184.83 287.25,-190.21"/>
</g>
<!-- Tailwind CSS -->
<g id="node4" class="node">
<title>Tailwind CSS</title>
<path fill="#e6e6e6" stroke="black" stroke-width="2" d="M119.9,-396C119.9,-396 12,-396 12,-396 6,-396 0,-390 0,-384 0,-384 0,-336 0,-336 0,-330 6,-324 12,-324 12,-324 119.9,-324 119.9,-324 125.9,-324 131.9,-330 131.9,-336 131.9,-336 131.9,-384 131.9,-384 131.9,-390 125.9,-396 119.9,-396"/>
<text text-anchor="middle" x="65.95" y="-364.2" font-family="Arial" font-size="14.00">Tailwind CSS</text>
<text text-anchor="middle" x="65.95" y="-347.4" font-family="Arial" font-size="14.00">(CSS::Framework)</text>
</g>
<!-- Tailwind CSS&#45;&gt;Astro Site -->
<g id="edge4" class="edge">
<title>Tailwind CSS&#45;&gt;Astro Site</title>
<path fill="none" stroke="black" d="M113.57,-323.7C126.77,-313.92 141.2,-303.22 154.75,-293.18"/>
<polygon fill="black" stroke="black" points="156.79,-296.02 162.74,-287.25 152.63,-290.39 156.79,-296.02"/>
</g>
<!-- Sitemap -->
<g id="node5" class="node">
<title>Sitemap</title>
<path fill="#e6e6e6" stroke="black" stroke-width="2" d="M255.52,-396C255.52,-396 162.38,-396 162.38,-396 156.38,-396 150.38,-390 150.38,-384 150.38,-384 150.38,-336 150.38,-336 150.38,-330 156.38,-324 162.38,-324 162.38,-324 255.52,-324 255.52,-324 261.52,-324 267.52,-330 267.52,-336 267.52,-336 267.52,-384 267.52,-384 267.52,-390 261.52,-396 255.52,-396"/>
<text text-anchor="middle" x="208.95" y="-364.2" font-family="Arial" font-size="14.00">Sitemap</text>
<text text-anchor="middle" x="208.95" y="-347.4" font-family="Arial" font-size="14.00">(Astro::Sitemap)</text>
</g>
<!-- Sitemap&#45;&gt;Astro Site -->
<g id="edge5" class="edge">
<title>Sitemap&#45;&gt;Astro Site</title>
<path fill="none" stroke="black" d="M208.95,-323.7C208.95,-315.93 208.95,-307.57 208.95,-299.43"/>
<polygon fill="black" stroke="black" points="212.45,-299.66 208.95,-289.66 205.45,-299.66 212.45,-299.66"/>
</g>
<!-- Icon Integration -->
<g id="node6" class="node">
<title>Icon Integration</title>
<path fill="#e6e6e6" stroke="black" stroke-width="2" d="M386.2,-396C386.2,-396 297.69,-396 297.69,-396 291.69,-396 285.69,-390 285.69,-384 285.69,-384 285.69,-336 285.69,-336 285.69,-330 291.69,-324 297.69,-324 297.69,-324 386.2,-324 386.2,-324 392.2,-324 398.2,-330 398.2,-336 398.2,-336 398.2,-384 398.2,-384 398.2,-390 392.2,-396 386.2,-396"/>
<text text-anchor="middle" x="341.95" y="-364.2" font-family="Arial" font-size="14.00">Icon Integration</text>
<text text-anchor="middle" x="341.95" y="-347.4" font-family="Arial" font-size="14.00">(Astro::Icon)</text>
</g>
<!-- Icon Integration&#45;&gt;Astro Site -->
<g id="edge6" class="edge">
<title>Icon Integration&#45;&gt;Astro Site</title>
<path fill="none" stroke="black" d="M297.66,-323.7C286.22,-314.59 273.79,-304.68 261.95,-295.24"/>
<polygon fill="black" stroke="black" points="264.23,-292.58 254.23,-289.09 259.86,-298.06 264.23,-292.58"/>
</g>
<!-- Custom 404 Page -->
<g id="node7" class="node">
<title>Custom 404 Page</title>
<path fill="#e6e6e6" stroke="black" stroke-width="2" d="M387.98,-288C387.98,-288 283.91,-288 283.91,-288 277.91,-288 271.91,-282 271.91,-276 271.91,-276 271.91,-228 271.91,-228 271.91,-222 277.91,-216 283.91,-216 283.91,-216 387.98,-216 387.98,-216 393.98,-216 399.98,-222 399.98,-228 399.98,-228 399.98,-276 399.98,-276 399.98,-282 393.98,-288 387.98,-288"/>
<text text-anchor="middle" x="335.95" y="-256.2" font-family="Arial" font-size="14.00">Custom 404 Page</text>
<text text-anchor="middle" x="335.95" y="-239.4" font-family="Arial" font-size="14.00">(Netlify::Redirect)</text>
</g>
<!-- Custom 404 Page&#45;&gt;Netlify Deploy -->
<g id="edge7" class="edge">
<title>Custom 404 Page&#45;&gt;Netlify Deploy</title>
<path fill="none" stroke="black" d="M335.95,-215.7C335.95,-207.93 335.95,-199.57 335.95,-191.43"/>
<polygon fill="black" stroke="black" points="339.45,-191.66 335.95,-181.66 332.45,-191.66 339.45,-191.66"/>
</g>
<!-- Security Headers -->
<g id="node8" class="node">
<title>Security Headers</title>
<path fill="#e6e6e6" stroke="black" stroke-width="2" d="M530.41,-288C530.41,-288 429.49,-288 429.49,-288 423.49,-288 417.49,-282 417.49,-276 417.49,-276 417.49,-228 417.49,-228 417.49,-222 423.49,-216 429.49,-216 429.49,-216 530.41,-216 530.41,-216 536.41,-216 542.41,-222 542.41,-228 542.41,-228 542.41,-276 542.41,-276 542.41,-282 536.41,-288 530.41,-288"/>
<text text-anchor="middle" x="479.95" y="-256.2" font-family="Arial" font-size="14.00">Security Headers</text>
<text text-anchor="middle" x="479.95" y="-239.4" font-family="Arial" font-size="14.00">(Netlify::Headers)</text>
</g>
<!-- Security Headers&#45;&gt;Netlify Deploy -->
<g id="edge8" class="edge">
<title>Security Headers&#45;&gt;Netlify Deploy</title>
<path fill="none" stroke="black" d="M432,-215.7C419.49,-206.5 405.89,-196.48 392.96,-186.97"/>
<polygon fill="black" stroke="black" points="395.04,-184.15 384.91,-181.04 390.89,-189.79 395.04,-184.15"/>
</g>
<!-- Asset Caching -->
<g id="node9" class="node">
<title>Asset Caching</title>
<path fill="#e6e6e6" stroke="black" stroke-width="2" d="M673.41,-288C673.41,-288 572.49,-288 572.49,-288 566.49,-288 560.49,-282 560.49,-276 560.49,-276 560.49,-228 560.49,-228 560.49,-222 566.49,-216 572.49,-216 572.49,-216 673.41,-216 673.41,-216 679.41,-216 685.41,-222 685.41,-228 685.41,-228 685.41,-276 685.41,-276 685.41,-282 679.41,-288 673.41,-288"/>
<text text-anchor="middle" x="622.95" y="-256.2" font-family="Arial" font-size="14.00">Asset Caching</text>
<text text-anchor="middle" x="622.95" y="-239.4" font-family="Arial" font-size="14.00">(Netlify::Headers)</text>
</g>
<!-- Asset Caching&#45;&gt;Netlify Deploy -->
<g id="edge9" class="edge">
<title>Asset Caching&#45;&gt;Netlify Deploy</title>
<path fill="none" stroke="black" d="M560.34,-219.96C557.18,-218.58 554.04,-217.25 550.95,-216 503.04,-196.55 447.59,-178.34 405.01,-165.23"/>
<polygon fill="black" stroke="black" points="406.23,-161.94 395.64,-162.37 404.18,-168.64 406.23,-161.94"/>
</g>
</g>
</svg>
